<svg width="56" height="56" viewBox="0 0 56 56" fill="none" xmlns="http://www.w3.org/2000/svg">
<rect x="1.5" y="1.5" width="53" height="53" rx="10.5" fill="white" stroke="#F10000" stroke-width="3"/>
<path d="M45.8 13.52C45.8 15.8773 43.5146 18.04 40.36 18.04C37.2054 18.04 34.92 15.8773 34.92 13.52C34.92 11.1627 37.2054 9 40.36 9C43.5146 9 45.8 11.1627 45.8 13.52Z" stroke="#F10000" stroke-width="2"/>
<path d="M46.72 24.1C46.72 27.2987 43.9343 30 40.36 30C36.7857 30 34 27.2987 34 24.1C34 20.9013 36.7857 18.2 40.36 18.2C43.9343 18.2 46.72 20.9013 46.72 24.1Z" stroke="#F10000" stroke-width="2"/>
<path d="M13.6957 31.8341C15.4835 29.6224 18.0559 26 18.0559 26C18.0559 26 20.5468 29.6314 22.3043 31.8341C24.0449 34.0156 27 37.2195 27 37.2195C27 37.2195 24.0525 40.6388 22.3043 42.9415C20.5572 45.2428 18.0559 49 18.0559 49C18.0559 49 15.4727 45.2519 13.6957 42.9415C11.9331 40.6499 9 37.2195 9 37.2195C9 37.2195 11.9413 34.0044 13.6957 31.8341Z" stroke="#F10000" stroke-width="2"/>
</svg>
