<svg width="56" height="56" viewBox="0 0 56 56" fill="none" xmlns="http://www.w3.org/2000/svg">
<rect x="1.5" y="1.5" width="53" height="53" rx="10.5" fill="white" stroke="#F10000" stroke-width="3"/>
<path d="M45.8 13.52C45.8 15.8773 43.5146 18.04 40.36 18.04C37.2054 18.04 34.92 15.8773 34.92 13.52C34.92 11.1627 37.2054 9 40.36 9C43.5146 9 45.8 11.1627 45.8 13.52Z" stroke="#F10000" stroke-width="2"/>
<path d="M46.72 24.1C46.72 27.2987 43.9343 30 40.36 30C36.7857 30 34 27.2987 34 24.1C34 20.9013 36.7857 18.2 40.36 18.2C43.9343 18.2 46.72 20.9013 46.72 24.1Z" stroke="#F10000" stroke-width="2"/>
<path d="M18.0167 49.7195C16.4531 47.9503 13.8392 44.8701 11.4297 41.4617L11.4297 41.4616C10.3369 39.9158 9.20913 37.4395 9.02581 35.0736C8.93507 33.9024 9.07919 32.8078 9.52404 31.8718C9.96151 30.9514 10.7184 30.1221 11.9708 29.5043C14.0498 28.4787 16.084 29.1852 17.4392 30.1682L18.021 30.5903L18.6065 30.1733C19.9631 29.2069 21.9738 28.5282 24.0292 29.5422C25.2815 30.16 26.0385 30.9893 26.476 31.9097C26.9208 32.8456 27.0649 33.9403 26.9742 35.1114C26.7909 37.4774 25.6631 39.9537 24.5703 41.4995L24.5703 41.4995C22.178 44.8837 19.584 47.9443 18.0167 49.7195Z" stroke="#F10000" stroke-width="2"/>
</svg>
