<svg width="56" height="56" viewBox="0 0 56 56" fill="none" xmlns="http://www.w3.org/2000/svg">
<rect x="1.5" y="1.5" width="53" height="53" rx="10.5" fill="white" stroke="black" stroke-width="3"/>
<path d="M45.8 13.52C45.8 15.8773 43.5146 18.04 40.36 18.04C37.2054 18.04 34.92 15.8773 34.92 13.52C34.92 11.1627 37.2054 9 40.36 9C43.5146 9 45.8 11.1627 45.8 13.52Z" stroke="black" stroke-width="2"/>
<path d="M46.72 24.1C46.72 27.2987 43.9343 30 40.36 30C36.7857 30 34 27.2987 34 24.1C34 20.9013 36.7857 18.2 40.36 18.2C43.9343 18.2 46.72 20.9013 46.72 24.1Z" stroke="black" stroke-width="2"/>
<path d="M13.6873 44.02C11.7013 44.6445 9 43.5 9 40C9 36.5 18.5 27 18.5 27C18.5 27 28.5 36 28.5 40C28.5 44 25.4859 44.6445 23.4999 44.02C21.6385 43.4346 20 42.02 20 42.02C20 45.22 20.9999 48.02 21.4999 49.02H15.6873C16.1873 48.02 17.1873 45.22 17.1873 42.02C17.1873 42.02 15.5488 43.4346 13.6873 44.02Z" stroke="black" stroke-width="2"/>
</svg>
