<svg width="56" height="56" viewBox="0 0 56 56" fill="none" xmlns="http://www.w3.org/2000/svg">
<rect x="1.5" y="1.5" width="53" height="53" rx="10.5" fill="white" stroke="black" stroke-width="3"/>
<path d="M13.1874 32.02C14.0674 28.5 16.5 28 18 28C19.5 28 22.12 28.5 23 32.02C23.88 35.54 21.5 37.02 21.5 37.02C21.5 37.02 24.0494 36.1694 26 37.02C27.5048 37.6762 28.6532 39.6248 28 42.02C27.2257 44.859 24.986 45.1445 23 44.52C21.1385 43.9346 19.5 42.52 19.5 42.52C19.5 45.72 20.5 48.52 21 49.52H15.1874C15.6874 48.52 16.6873 45.72 16.6873 42.52C16.6873 42.52 15.0488 43.9346 13.1874 44.52C11.2014 45.1445 8.96163 44.859 8.18735 42.02C7.53411 39.6248 8.68257 37.6762 10.1874 37.02C12.138 36.1694 14.6874 37.02 14.6874 37.02C14.6874 37.02 12.3074 35.54 13.1874 32.02Z" fill="white" stroke="black" stroke-width="2"/>
<path d="M45.8 13.52C45.8 15.8773 43.5146 18.04 40.36 18.04C37.2054 18.04 34.92 15.8773 34.92 13.52C34.92 11.1627 37.2054 9 40.36 9C43.5146 9 45.8 11.1627 45.8 13.52Z" fill="white" stroke="black" stroke-width="2"/>
<path d="M46.72 24.1C46.72 27.2987 43.9343 30 40.36 30C36.7857 30 34 27.2987 34 24.1C34 20.9013 36.7857 18.2 40.36 18.2C43.9343 18.2 46.72 20.9013 46.72 24.1Z" fill="white" stroke="black" stroke-width="2"/>
</svg>
