<svg width="56" height="56" viewBox="0 0 56 56" fill="none" xmlns="http://www.w3.org/2000/svg">
<rect x="1.5" y="1.5" width="53" height="53" rx="10.5" fill="white" stroke="black" stroke-width="3"/>
<path d="M13.1874 32.02C14.0674 28.5 16.5 28 18 28C19.5 28 22.12 28.5 23 32.02C23.88 35.54 21.5 37.02 21.5 37.02C21.5 37.02 24.0494 36.1694 26 37.02C27.5048 37.6762 28.6532 39.6248 28 42.02C27.2257 44.859 24.986 45.1445 23 44.52C21.1385 43.9346 19.5 42.52 19.5 42.52C19.5 45.72 20.5 48.52 21 49.52H15.1874C15.6874 48.52 16.6873 45.72 16.6873 42.52C16.6873 42.52 15.0488 43.9346 13.1874 44.52C11.2014 45.1445 8.96163 44.859 8.18735 42.02C7.53411 39.6248 8.68257 37.6762 10.1874 37.02C12.138 36.1694 14.6874 37.02 14.6874 37.02C14.6874 37.02 12.3074 35.54 13.1874 32.02Z" stroke="black" stroke-width="2"/>
<path d="M38.5385 8H43.5513M48.5 8H43.5513M43.5513 8C43.5513 10.7695 43.5513 11 43.5513 20C43.5513 29 43.4959 32 37.2308 32C32.0275 32 32 28.4677 32 24.7143" stroke="black" stroke-width="2"/>
</svg>
