<svg width="56" height="56" viewBox="0 0 56 56" fill="none" xmlns="http://www.w3.org/2000/svg">
<rect x="1.5" y="1.5" width="53" height="53" rx="10.5" fill="white" stroke="#F10000" stroke-width="3"/>
<path d="M38.5385 8H43.5513M48.5 8H43.5513M43.5513 8C43.5513 10.7695 43.5513 11 43.5513 20C43.5513 29 43.4959 32 37.2308 32C32.0275 32 32 28.4677 32 24.7143" stroke="#F10000" stroke-width="2"/>
<path d="M13.6957 31.8341C15.4835 29.6224 18.0559 26 18.0559 26C18.0559 26 20.5468 29.6314 22.3043 31.8341C24.0449 34.0156 27 37.2195 27 37.2195C27 37.2195 24.0525 40.6388 22.3043 42.9415C20.5572 45.2428 18.0559 49 18.0559 49C18.0559 49 15.4727 45.2519 13.6957 42.9415C11.9331 40.6499 9 37.2195 9 37.2195C9 37.2195 11.9413 34.0044 13.6957 31.8341Z" stroke="#F10000" stroke-width="2"/>
</svg>
