<svg width="56" height="56" viewBox="0 0 56 56" fill="none" xmlns="http://www.w3.org/2000/svg">
<rect x="1.5" y="1.5" width="53" height="53" rx="10.5" fill="white" stroke="#F10000" stroke-width="3"/>
<path d="M32 32H35.4718M38.9437 32H35.4718M35.4718 32V24.87M35.4718 9H32M35.4718 9H38.9437M35.4718 9V24.87M35.4718 24.87L40.3803 18.2M46.1268 9H49M46.1268 9H41.8169M46.1268 9L40.3803 18.2M40.3803 18.2L46.1268 32M46.1268 32H41.8169M46.1268 32H49" stroke="#F10000" stroke-width="2"/>
<path d="M13.6957 31.8341C15.4835 29.6224 18.0559 26 18.0559 26C18.0559 26 20.5468 29.6314 22.3043 31.8341C24.0449 34.0156 27 37.2195 27 37.2195C27 37.2195 24.0525 40.6388 22.3043 42.9415C20.5572 45.2428 18.0559 49 18.0559 49C18.0559 49 15.4727 45.2519 13.6957 42.9415C11.9331 40.6499 9 37.2195 9 37.2195C9 37.2195 11.9413 34.0044 13.6957 31.8341Z" stroke="#F10000" stroke-width="2"/>
</svg>
