<svg width="56" height="56" viewBox="0 0 56 56" fill="none" xmlns="http://www.w3.org/2000/svg">
<rect x="1.5" y="1.5" width="53" height="53" rx="10.5" fill="white" stroke="black" stroke-width="3"/>
<path d="M35.7877 26.1404C35.7877 27.6842 36.5754 30 41.3016 30C47.9971 30 47.9971 23.8246 47.9971 18.0351M47.9971 18.0351C47.9971 14.5614 48.3233 8 42.0893 8C36.9693 8 35 10.7018 35 14.9474C35 23.5208 45.2401 23.0526 47.9971 18.0351Z" stroke="black" stroke-width="2"/>
<path d="M13.6873 44.02C11.7013 44.6445 9 43.5 9 40C9 36.5 18.5 27 18.5 27C18.5 27 28.5 36 28.5 40C28.5 44 25.4859 44.6445 23.4999 44.02C21.6385 43.4346 20 42.02 20 42.02C20 45.22 20.9999 48.02 21.4999 49.02H15.6873C16.1873 48.02 17.1873 45.22 17.1873 42.02C17.1873 42.02 15.5488 43.4346 13.6873 44.02Z" stroke="black" stroke-width="2"/>
</svg>
