<svg width="56" height="56" viewBox="0 0 56 56" fill="none" xmlns="http://www.w3.org/2000/svg">
<rect x="1.5" y="1.5" width="53" height="53" rx="10.5" fill="white" stroke="#F10000" stroke-width="3"/>
<path d="M47.1738 22.9586C47.1738 27.1228 44.3096 30.2267 41.0869 30.2267C37.8643 30.2267 35 27.1228 35 22.9586C35 18.7944 37.8643 15.6905 41.0869 15.6905C44.3096 15.6905 47.1738 18.7944 47.1738 22.9586Z" stroke="#F10000" stroke-width="2"/>
<path d="M45.8115 11.9345C45.8115 11.1471 42.6618 7.20991 37.9372 9.96596C34.5624 11.9345 35 21.8188 35 23" stroke="#F10000" stroke-width="2"/>
<path d="M13.6957 31.8341C15.4835 29.6224 18.0559 26 18.0559 26C18.0559 26 20.5468 29.6314 22.3043 31.8341C24.0449 34.0156 27 37.2195 27 37.2195C27 37.2195 24.0525 40.6388 22.3043 42.9415C20.5572 45.2428 18.0559 49 18.0559 49C18.0559 49 15.4727 45.2519 13.6957 42.9415C11.9331 40.6499 9 37.2195 9 37.2195C9 37.2195 11.9413 34.0044 13.6957 31.8341Z" stroke="#F10000" stroke-width="2"/>
</svg>
