<svg width="56" height="56" viewBox="0 0 56 56" fill="none" xmlns="http://www.w3.org/2000/svg">
<rect x="1.5" y="1.5" width="53" height="53" rx="10.5" fill="white" stroke="black" stroke-width="3"/>
<path d="M34.5 13.5V10H45.5V10.5L38 17.9643V18C38 18 47.5 15.5 47.5 24C47.5 32.5 36.5 33.5 34 28" stroke="black" stroke-width="2" stroke-miterlimit="14.0378"/>
<path d="M13.6873 43.02C11.7013 43.6445 9 42.5 9 39C9 35.5 18.5 26 18.5 26C18.5 26 28.5 35 28.5 39C28.5 43 25.4859 43.6445 23.4999 43.02C21.6385 42.4346 20 41.02 20 41.02C20 44.22 20.9999 47.02 21.4999 48.02H15.6873C16.1873 47.02 17.1873 44.22 17.1873 41.02C17.1873 41.02 15.5488 42.4346 13.6873 43.02Z" stroke="black" stroke-width="2"/>
</svg>
