<svg width="56" height="56" viewBox="0 0 56 56" fill="none" xmlns="http://www.w3.org/2000/svg">
<rect x="1.5" y="1.5" width="53" height="53" rx="10.5" fill="white" stroke="#F10000" stroke-width="3"/>
<path d="M46.8104 26.1212V31C46.8104 31 39.1684 31 35 31C35 24.7273 45.1893 19.8485 46.8104 14.9697C47.5051 12.8788 46.4297 8 41.2526 8C36.0754 8 35 11.4848 35 14.9697" stroke="#F10000" stroke-width="2"/>
<path d="M18.0167 47.7195C16.4531 45.9503 13.8392 42.8701 11.4297 39.4617L11.4297 39.4616C10.3369 37.9158 9.20913 35.4395 9.02581 33.0736C8.93507 31.9024 9.07919 30.8078 9.52404 29.8718C9.96151 28.9514 10.7184 28.1221 11.9708 27.5043C14.0498 26.4787 16.084 27.1852 17.4392 28.1682L18.021 28.5903L18.6065 28.1733C19.9631 27.2069 21.9738 26.5282 24.0292 27.5422C25.2815 28.16 26.0385 28.9893 26.476 29.9097C26.9208 30.8456 27.0649 31.9403 26.9742 33.1114C26.7909 35.4774 25.6631 37.9537 24.5703 39.4995L24.5703 39.4995C22.178 42.8837 19.584 45.9443 18.0167 47.7195Z" stroke="#F10000" stroke-width="2"/>
</svg>
