<svg width="56" height="56" viewBox="0 0 56 56" fill="none" xmlns="http://www.w3.org/2000/svg">
<rect x="1.5" y="1.5" width="53" height="53" rx="10.5" fill="white" stroke="black" stroke-width="3"/>
<path d="M46.8104 26.1212V31C46.8104 31 39.1684 31 35 31C35 24.7273 45.1893 19.8485 46.8104 14.9697C47.5051 12.8788 46.4297 8 41.2526 8C36.0754 8 35 11.4848 35 14.9697" stroke="black" stroke-width="2"/>
<path d="M13.6873 43.02C11.7013 43.6445 9 42.5 9 39C9 35.5 18.5 26 18.5 26C18.5 26 28.5 35 28.5 39C28.5 43 25.4859 43.6445 23.4999 43.02C21.6385 42.4346 20 41.02 20 41.02C20 44.22 20.9999 47.02 21.4999 48.02H15.6873C16.1873 47.02 17.1873 44.22 17.1873 41.02C17.1873 41.02 15.5488 42.4346 13.6873 43.02Z" stroke="black" stroke-width="2"/>
</svg>
