<svg width="56" height="56" viewBox="0 0 56 56" fill="none" xmlns="http://www.w3.org/2000/svg">
<rect x="1.5" y="1.5" width="53" height="53" rx="10.5" stroke="#F10000" stroke-width="3"/>
<path d="M32 32H38.8276H35.1034L36.7909 24.6875M50 32H43.1724H47.1034L45.4159 24.6875M36.7909 24.6875L41.1034 6L45.4159 24.6875M36.7909 24.6875H45.4159" stroke="#F10000" stroke-width="2"/>
<path d="M18.0167 48.7195C16.4531 46.9503 13.8392 43.8701 11.4297 40.4617L11.4297 40.4616C10.3369 38.9158 9.20913 36.4395 9.02581 34.0736C8.93507 32.9024 9.07919 31.8078 9.52404 30.8718C9.96151 29.9514 10.7184 29.1221 11.9708 28.5043C14.0498 27.4787 16.084 28.1852 17.4392 29.1682L18.021 29.5903L18.6065 29.1733C19.9631 28.2069 21.9738 27.5282 24.0292 28.5422C25.2815 29.16 26.0385 29.9893 26.476 30.9097C26.9208 31.8456 27.0649 32.9403 26.9742 34.1114C26.7909 36.4774 25.6631 38.9537 24.5703 40.4995L24.5703 40.4995C22.178 43.8837 19.584 46.9443 18.0167 48.7195Z" stroke="#F10000" stroke-width="2"/>
</svg>
