<svg width="50" height="50" viewBox="0 0 50 50" fill="none" xmlns="http://www.w3.org/2000/svg">
<rect x="1.26587" y="0.654147" width="25.3918" height="36.8926" rx="4" transform="matrix(0.955084 -0.296335 0.310782 0.950481 -0.146439 10.5246)" fill="white" stroke="#F10000" stroke-width="2"/>
<rect x="0.742926" y="1.1937" width="25.4204" height="35.4961" rx="4" transform="matrix(0.97526 0.221061 -0.232334 0.972636 22.7355 4.00808)" fill="white" stroke="#F10000" stroke-width="2"/>
<path d="M22.4221 22.4233L25.7393 23.1587L23.93 22.7576L25.5895 19.3454M31.1674 24.3621L27.8503 23.6267L29.7601 24.0501L29.78 20.2744M25.5895 19.3454L29.8306 10.6254L29.78 20.2744M25.5895 19.3454L29.78 20.2744" stroke="#F10000"/>
<path d="M6.14364 19.0238C10.2661 17.9049 13.1717 22.8863 16.8361 21.8917M12.5992 23.0417V23.0417C10.8916 23.5052 9.1129 22.5019 8.62632 20.8007L7.19771 15.8062C6.71113 14.1051 7.70093 12.3503 9.40849 11.8868V11.8868C11.1161 11.4234 12.8948 12.4267 13.3813 14.1278L14.8099 19.1224C15.2965 20.8235 14.3067 22.5782 12.5992 23.0417Z" stroke="#F10000"/>
</svg>
