<svg width="50" height="50" viewBox="0 0 50 50" fill="none" xmlns="http://www.w3.org/2000/svg">
<path d="M39.5834 16.6667L31.25 25H37.5C37.5 31.8958 31.8959 37.5 25 37.5C22.8959 37.5 20.8959 36.9792 19.1667 36.0417L16.125 39.0833C18.6875 40.7083 21.7292 41.6667 25 41.6667C34.2084 41.6667 41.6667 34.2083 41.6667 25H47.9167L39.5834 16.6667ZM12.5 25C12.5 18.1042 18.1042 12.5 25 12.5C27.1042 12.5 29.1042 13.0208 30.8334 13.9583L33.875 10.9167C31.3125 9.29168 28.2709 8.33334 25 8.33334C15.7917 8.33334 8.33337 15.7917 8.33337 25H2.08337L10.4167 33.3333L18.75 25H12.5Z" fill="#F10000"/>
</svg>
